<svg version="1.0" xmlns="http://www.w3.org/2000/svg"
 width="512.000000pt" height="512.000000pt" viewBox="0 0 512.000000 512.000000"
 preserveAspectRatio="xMidYMid meet">

<g transform="translate(0.000000,512.000000) scale(0.100000,-0.100000)"
fill="#000000" stroke="none">
<path d="M1310 4685 c-668 -239 -1226 -443 -1240 -453 -32 -23 -70 -98 -70
-137 1 -44 33 -109 67 -133 16 -12 284 -112 594 -223 310 -110 576 -206 591
-211 l27 -10 3 -293 3 -293 31 -38 c117 -146 522 -231 1144 -241 710 -12 1213
78 1344 241 l31 38 3 293 3 293 112 40 c62 22 120 43 130 47 16 7 17 -3 17
-114 0 -142 15 -184 77 -222 33 -21 54 -24 148 -27 165 -6 228 18 266 102 15
34 19 66 19 191 0 131 -4 169 -21 234 -3 10 57 36 211 91 118 43 230 88 248
100 37 24 71 89 72 135 0 39 -38 114 -70 137 -38 28 -2428 880 -2480 884 -39
4 -206 -53 -1260 -431z m2078 -31 c455 -163 839 -301 855 -306 l27 -10 0 -212
0 -213 -25 -11 c-14 -7 -47 -32 -74 -57 -40 -38 -68 -52 -188 -94 l-142 -50
-3 137 c-3 126 -5 140 -27 171 -111 156 -580 252 -1236 254 -675 1 -1152 -95
-1267 -256 -21 -29 -24 -46 -28 -168 l-5 -137 -548 196 c-301 107 -545 197
-543 200 3 3 2339 841 2374 851 1 1 375 -132 830 -295z m1316 -470 c115 -41
215 -78 223 -83 10 -5 -68 -37 -229 -94 -134 -48 -246 -87 -250 -87 -5 0 -8
81 -8 180 l0 180 28 -11 c15 -6 121 -44 236 -85z m-1914 -94 c396 -19 732 -79
848 -150 l32 -20 0 -370 c0 -203 -3 -370 -6 -370 -4 0 -36 11 -73 24 -246 89
-805 141 -1263 117 -358 -18 -640 -60 -799 -117 -37 -13 -69 -24 -73 -24 -3 0
-6 167 -6 370 l0 370 33 20 c110 68 459 132 817 149 240 12 265 12 490 1z
m1620 -360 c28 -28 31 -50 28 -190 l-3 -125 -82 -3 -83 -3 0 147 c0 138 1 149
22 171 28 30 89 32 118 3z m-1585 -580 c277 -15 499 -46 665 -92 71 -19 170
-62 170 -74 0 -12 -111 -53 -209 -78 -233 -58 -517 -86 -891 -86 -141 0 -315
5 -386 10 -274 22 -544 74 -664 127 l-55 24 24 18 c47 36 243 88 431 115 277
40 606 53 915 36z"/>
<path d="M200 2456 c-135 -77 -211 -476 -197 -1026 7 -258 18 -371 52 -522 29
-131 72 -224 125 -272 48 -43 53 -43 233 -16 457 68 919 110 1474 135 l143 7
-14 -34 c-8 -18 -48 -115 -90 -215 -43 -103 -76 -197 -76 -215 1 -48 33 -112
70 -138 43 -31 122 -38 174 -16 21 9 44 16 51 16 6 0 22 -23 36 -51 54 -116
192 -144 276 -56 21 21 57 95 108 217 43 102 78 186 79 187 1 2 38 -83 81
-188 65 -157 86 -197 117 -224 87 -79 211 -51 265 60 15 30 32 55 39 55 6 0
29 -7 50 -16 52 -22 131 -15 174 16 37 26 69 90 70 137 0 19 -37 122 -86 239
-47 113 -83 208 -80 212 7 7 380 -14 616 -34 231 -19 564 -57 778 -89 225 -32
224 -33 272 11 53 48 96 141 125 272 34 151 45 264 52 522 13 505 -47 872
-165 998 -39 41 -71 48 -172 34 -47 -6 -168 -22 -270 -36 -722 -97 -1576 -140
-2357 -117 -627 18 -1037 50 -1573 122 -289 40 -348 44 -380 25z m4664 -195
c21 -54 52 -212 68 -346 16 -141 16 -626 -1 -760 -21 -172 -56 -337 -79 -371
-5 -8 -54 -5 -172 12 -449 64 -1117 124 -1379 124 -116 0 -119 3 -91 81 30 88
38 241 16 327 -23 92 -55 159 -107 228 l-46 61 -7 114 c-7 120 -30 298 -47
363 -6 21 -9 39 -7 41 2 1 127 8 278 14 457 20 977 67 1375 126 88 12 165 23
171 24 7 1 19 -17 28 -38z m-4019 -35 c360 -40 604 -58 1096 -82 l126 -6 22
-111 c32 -167 40 -248 41 -395 0 -110 -3 -139 -19 -170 -44 -89 -56 -144 -56
-267 0 -100 4 -131 24 -188 12 -38 21 -70 20 -71 -2 -2 -128 -8 -279 -15 -419
-18 -740 -45 -1168 -97 -117 -14 -215 -24 -217 -22 -1 1 6 37 16 78 36 138 50
288 56 565 7 350 -14 613 -62 771 -8 27 -15 52 -15 55 0 3 42 0 93 -7 50 -7
196 -24 322 -38z m-552 -126 c41 -202 50 -331 44 -637 -4 -221 -9 -303 -26
-398 -19 -112 -47 -235 -55 -243 -5 -5 -42 161 -63 283 -25 146 -25 716 0 860
29 170 59 289 67 274 5 -8 19 -70 33 -139z m2541 29 c10 -10 47 -222 53 -301
l6 -88 -59 22 c-48 17 -83 21 -184 22 -138 1 -214 -17 -302 -73 l-44 -28 -12
131 c-7 72 -21 173 -31 223 -10 51 -17 94 -15 95 4 5 584 1 588 -3z m-62 -529
c273 -84 385 -415 221 -650 -133 -189 -402 -236 -593 -103 -107 75 -169 188
-178 325 -18 294 266 516 550 428z m-403 -934 c25 -13 70 -31 99 -40 28 -10
52 -19 52 -20 0 -9 -172 -412 -179 -419 -4 -4 -20 25 -37 63 -50 121 -82 134
-199 82 -39 -17 -71 -27 -73 -23 -1 4 33 92 77 196 43 105 86 207 95 228 l15
38 53 -41 c28 -23 72 -52 97 -64z m806 -141 c51 -121 91 -221 90 -222 -1 -2
-38 12 -83 31 -120 49 -144 38 -198 -86 -15 -37 -32 -64 -36 -60 -5 5 -68 152
-175 408 -2 7 17 19 49 29 72 24 155 68 203 110 29 25 42 31 48 22 5 -7 51
-111 102 -232z"/>
</g>
</svg>
