<svg width="183" height="160" viewBox="0 0 183 160" fill="none" xmlns="http://www.w3.org/2000/svg">
<g clip-path="url(#clip0_9874_289003)">
<path fill-rule="evenodd" clip-rule="evenodd" d="M153.058 70.1303C156.845 64.5298 163.116 60.678 169.823 59.8328C171.594 66.2507 170.524 73.3984 166.953 79.0171C163.382 84.6368 156.725 88.5694 150.162 89.6909C148.448 83.1513 149.272 75.7309 153.058 70.1303Z" fill="#FACBB3"/>
<path fill-rule="evenodd" clip-rule="evenodd" d="M129.889 84.4579C129.694 80.0249 131.492 75.5416 134.696 72.4716C138.141 75.1619 140.373 79.3473 140.69 83.7065C141.005 88.0647 139.036 92.7418 136.015 95.9004C132.553 93.1249 130.085 88.8909 129.889 84.4579Z" fill="#FACBB3"/>
<path d="M135.074 80.7214L135.995 95.5674" stroke="#2B2D2F" stroke-width="1.25" stroke-linecap="round" stroke-linejoin="round"/>
<path fill-rule="evenodd" clip-rule="evenodd" d="M158.506 111.55C161.79 112.693 164.533 115.301 165.84 118.524C162.883 120.252 159.189 120.665 155.924 119.631C152.659 118.598 149.824 115.809 148.401 112.694C151.425 110.979 155.223 110.408 158.506 111.55Z" fill="#FACBB3"/>
<path d="M159.724 116.408L148.649 112.776" stroke="#2B2D2F" stroke-width="1.25" stroke-linecap="round" stroke-linejoin="round"/>
<path d="M123.38 159.457C127.904 134.793 149.526 88.2843 163.036 67.1593" stroke="#2B2D2F" stroke-width="1.25" stroke-linecap="round" stroke-linejoin="round"/>
<path fill-rule="evenodd" clip-rule="evenodd" d="M152.203 102.88C157.168 105.796 163.338 106.579 168.873 104.998C174.409 103.417 179.234 99.4932 181.91 94.3957C182.02 94.1854 182.129 93.9448 182.056 93.7189C181.963 93.4392 181.625 93.3636 181.354 93.2446C172.523 89.3659 157.835 90.9278 152.203 102.88Z" fill="#FACBB3"/>
<path d="M165.84 97.7481C156.868 100.069 148.695 103.834 141.102 109.146" stroke="#2B2D2F" stroke-width="1.25" stroke-linecap="round" stroke-linejoin="round"/>
<path fill-rule="evenodd" clip-rule="evenodd" d="M3.56171 70.1337C3.00053 65.1517 7.70803 65.2942 7.70803 65.2942C9.45411 60.7648 14.8262 63.4917 14.8262 63.4917C14.8262 63.4917 14.0912 55.7124 13.5856 51.2126C13.0801 46.7136 16.2526 46.5859 16.2526 46.5859L21.4917 65.2655L21.4752 65.3046C21.8557 65.355 22.2223 65.4627 22.555 65.6712C23.2699 66.1186 23.6834 66.9135 24.0135 67.6892C25.6058 71.4385 26.3043 77.3761 25.1976 83.5091L33.015 111.155L36.0598 101.926L36.859 99.4558C40.0558 98.3569 45.1916 98.6853 48.4865 99.2135C48.5213 99.2239 48.556 99.2343 48.5899 99.2439C48.7437 103.465 50.9537 107.457 53.8282 110.583C53.8291 110.586 53.8308 110.588 53.8325 110.591C51.9796 115.961 49.2223 123.144 47.2382 127.814C47.2382 127.814 42.2701 141.307 39.3461 143.727C38.222 144.792 36.9528 145.649 35.5516 146.076C35.5516 146.076 35.0469 146.276 34.1921 146.472C28.0373 147.88 21.834 144.262 19.7552 138.3L19.5423 137.688C19.0611 136.309 18.704 134.888 18.5451 133.888L11.3887 88.7943L10.1369 87.9291C7.30233 86.3089 6.90187 85.3699 6.23557 83.0331C5.56841 80.6963 5.46938 77.5924 5.46938 77.5924C3.95523 77.1016 0.684589 75.5353 0.547333 72.5018C0.41008 69.4674 3.56171 70.1337 3.56171 70.1337Z" fill="white"/>
<path fill-rule="evenodd" clip-rule="evenodd" d="M3.56171 70.1337C3.00053 65.1517 7.70803 65.2942 7.70803 65.2942C9.45411 60.7648 14.8262 63.4917 14.8262 63.4917C14.8262 63.4917 14.0912 55.7124 13.5856 51.2126C13.0801 46.7136 16.2526 46.5859 16.2526 46.5859L21.4917 65.2655L21.4752 65.3046C21.8557 65.355 22.2223 65.4627 22.555 65.6712C23.2699 66.1186 23.6834 66.9135 24.0135 67.6892C25.6058 71.4385 26.3043 77.3761 25.1976 83.5091L33.015 111.155L36.0598 101.926L36.859 99.4558C40.0558 98.3569 45.1916 98.6853 48.4865 99.2135C48.5213 99.2239 48.556 99.2343 48.5899 99.2439C48.7437 103.465 50.9537 107.457 53.8282 110.583C53.8291 110.586 53.8308 110.588 53.8325 110.591C51.9796 115.961 49.2223 123.144 47.2382 127.814C47.2382 127.814 42.2701 141.307 39.3461 143.727C38.222 144.792 36.9528 145.649 35.5516 146.076C35.5516 146.076 35.0469 146.276 34.1921 146.472C28.0373 147.88 21.834 144.262 19.7552 138.3L19.5423 137.688C19.0611 136.309 18.704 134.888 18.5451 133.888L11.3887 88.7943L10.1369 87.9291C7.30233 86.3089 6.90187 85.3699 6.23557 83.0331C5.56841 80.6963 5.46938 77.5924 5.46938 77.5924C3.95523 77.1016 0.684589 75.5353 0.547334 72.5018C0.41008 69.4674 3.56171 70.1337 3.56171 70.1337Z" stroke="#2B2D2F" stroke-width="1.25" stroke-linecap="round" stroke-linejoin="round"/>
<path fill-rule="evenodd" clip-rule="evenodd" d="M25.1028 83.4989C26.2096 77.3658 25.5111 71.4283 23.9188 67.6798C23.5896 66.9032 23.1761 66.1092 22.4611 65.661C21.423 65.0112 20.0817 65.2718 18.8934 65.5663C17.2185 65.9824 15.5489 66.4228 13.887 66.8876C13.0131 67.1326 12.0636 67.4392 11.578 68.2063C11.0273 69.0767 11.3131 70.3068 12.0584 71.0191C12.8029 71.7306 13.8957 71.9825 14.9234 71.92C15.952 71.8565 16.9405 71.5143 17.9135 71.1755C16.2473 72.5385 12.1392 76.2009 14.4005 81.4261" fill="white"/>
<path d="M25.1028 83.4989C26.2096 77.3658 25.5111 71.4283 23.9188 67.6798C23.5896 66.9032 23.1761 66.1092 22.4611 65.661C21.423 65.0112 20.0817 65.2718 18.8934 65.5663C17.2185 65.9824 15.5489 66.4228 13.887 66.8876C13.0131 67.1326 12.0636 67.4392 11.578 68.2063C11.0273 69.0767 11.3131 70.3068 12.0584 71.0191C12.8029 71.7306 13.8957 71.9825 14.9234 71.92C15.9519 71.8565 16.9405 71.5143 17.9135 71.1755C16.2473 72.5385 12.1392 76.2009 14.4005 81.4261" stroke="#2B2D2F" stroke-width="1.25" stroke-linecap="round" stroke-linejoin="round"/>
<path d="M7.87115 64.9142C7.38381 66.2251 7.41508 67.3449 7.60707 68.7591C7.7947 70.1403 8.27945 71.876 9.20722 72.9184C10.1341 73.96 11.2217 74.7175 13.0451 74.2232C13.7905 74.0217 14.6453 72.9801 14.4733 71.9325" stroke="#2B2D2F" stroke-width="1.25" stroke-linecap="round" stroke-linejoin="round"/>
<path d="M11.2896 74.6531C11.3287 75.4532 10.546 76.1126 9.74853 76.1899C8.95107 76.2663 8.08497 76.1456 7.4152 75.7069C5.04278 74.1536 3.92912 72.8167 3.53907 70.0308" stroke="#2B2D2F" stroke-width="1.25" stroke-linecap="round" stroke-linejoin="round"/>
<path d="M7.36016 75.6364C7.47222 76.0273 7.48786 76.6511 7.27589 76.9994C6.91886 77.5875 6.11357 77.8542 5.47594 77.5971" stroke="#2B2D2F" stroke-width="0.75" stroke-linecap="round" stroke-linejoin="round"/>
<path d="M13.3366 65.9661L13.5347 66.7748" stroke="#1F2CA3" stroke-width="0.75" stroke-linecap="round" stroke-linejoin="round"/>
<path d="M32.855 110.591L36.6104 125.668" stroke="#2B2D2F" stroke-width="1.25" stroke-linecap="round" stroke-linejoin="round"/>
<path fill-rule="evenodd" clip-rule="evenodd" d="M67.129 54.9519C62.6308 54.4741 59.3176 52.2442 56.3519 48.4818C53.0386 44.2791 52.6755 38.6846 54.1358 33.3439L56.2885 22.8413C57.674 18.2624 58.7877 15.9638 61.1792 13.5106C63.8479 10.7716 65.455 9.96975 68.8203 9.32517C68.8203 9.32517 69.709 18.3336 72.0084 22.0768C78.4698 32.5968 87.9934 33.9346 87.9934 33.9346C88.6727 33.7704 89.5675 33.4299 90.3771 33.5037C90.4275 33.508 90.4796 33.5124 90.5335 33.5176C93.0944 33.76 95.3721 35.4817 96.0532 37.9619C96.2452 38.6594 96.3242 39.4256 96.1965 40.23C96.1618 40.4437 96.1488 40.6522 96.1114 40.8503C95.6701 43.1967 93.6999 44.9271 91.3718 45.4544C90.2268 45.7133 89.081 45.7367 88.0942 45.5074C87.6016 45.3927 87.2576 45.3119 86.9701 45.2329C86.2664 49.6997 85.4603 53.8043 85.6983 57.2383C85.7973 58.6665 86.0718 59.9808 86.6165 61.1536C86.951 61.872 87.3714 62.5452 87.9248 63.1533C89.9636 65.3989 89.7004 69.3593 88.5528 72.1678C86.9927 75.9432 82.0828 79.5865 76.9001 79.5657C69.4423 79.5352 66.2012 75.2786 65.6722 72.6699C65.2665 70.6693 65.6096 66.351 66.0622 62.4783C66.3028 60.4186 66.5739 58.4901 66.7815 57.0993C66.9761 55.7911 67.1142 54.9597 67.1142 54.9597L67.129 54.9519Z" fill="white"/>
<path fill-rule="evenodd" clip-rule="evenodd" d="M67.129 54.9519C62.6308 54.4741 59.3176 52.2442 56.3519 48.4818C53.0386 44.2791 52.6755 38.6846 54.1358 33.3439L56.2885 22.8413C57.674 18.2624 58.7877 15.9638 61.1792 13.5106C63.8479 10.7716 65.455 9.96975 68.8203 9.32517C68.8203 9.32517 69.709 18.3336 72.0084 22.0768C78.4698 32.5968 87.9934 33.9346 87.9934 33.9346C88.6727 33.7704 89.5675 33.4299 90.3771 33.5037C90.4275 33.508 90.4796 33.5124 90.5335 33.5176C93.0944 33.76 95.3721 35.4817 96.0532 37.9619C96.2452 38.6594 96.3242 39.4256 96.1965 40.23C96.1618 40.4437 96.1488 40.6522 96.1114 40.8503C95.6701 43.1967 93.6999 44.9271 91.3718 45.4544C90.2268 45.7133 89.081 45.7367 88.0942 45.5074C87.6016 45.3927 87.2576 45.3119 86.9701 45.2329C86.2664 49.6997 85.4603 53.8043 85.6983 57.2383C85.7973 58.6665 86.0718 59.9808 86.6165 61.1536C86.951 61.872 87.3714 62.5452 87.9248 63.1533C89.9636 65.3989 89.7004 69.3593 88.5528 72.1678C86.9927 75.9432 82.0828 79.5865 76.9001 79.5657C69.4423 79.5352 66.2012 75.2786 65.6722 72.6699C65.2665 70.6693 65.6096 66.351 66.0622 62.4783C66.3028 60.4186 66.5739 58.4901 66.7815 57.0993C66.9761 55.7911 67.1142 54.9597 67.1142 54.9597L67.129 54.9519Z" stroke="#2B2D2F" stroke-width="1.25" stroke-linecap="round" stroke-linejoin="round"/>
<path d="M71.606 29.3879L70.792 33.5394" stroke="#2B2D2F" stroke-width="1.25" stroke-linecap="round" stroke-linejoin="round"/>
<path d="M60.0601 27.4946C59.7465 28.7247 59.4337 29.9539 59.121 31.184" stroke="#2B2D2F" stroke-width="1.25" stroke-linecap="round" stroke-linejoin="round"/>
<path d="M86.332 40.3209C86.8689 39.0561 87.9851 38.051 89.2986 37.6488C91.0968 37.0972 91.6146 37.1389 93.2529 38.1995" stroke="#2B2D2F" stroke-width="1.25" stroke-linecap="round" stroke-linejoin="round"/>
<path d="M61.4068 42.8442C62.5648 43.5122 64.0094 43.4879 65.2786 43.0701C66.5486 42.6531 67.6232 41.8496 68.1592 40.6256" stroke="#2B2D2F" stroke-width="1.25" stroke-linecap="round" stroke-linejoin="round"/>
<path d="M78.0327 50.8976C75.4162 53.6079 71.5939 55.0439 67.1288 54.9518" stroke="#2B2D2F" stroke-width="1.25" stroke-linecap="round" stroke-linejoin="round"/>
<path d="M64.7793 26.2444C64.6629 24.9196 63.908 23.6661 62.7934 22.9425C61.678 22.2188 60.2256 22.0408 58.9686 22.4742" stroke="#2B2D2F" stroke-width="1.25" stroke-linecap="round" stroke-linejoin="round"/>
<path d="M64.7262 29.3393C65.0163 30.3531 65.2291 31.4068 65.1466 32.4588C65.0641 33.5108 64.6593 34.568 63.8748 35.2734C63.3441 35.7503 62.6265 36.0978 62.3833 36.7684C62.213 37.2375 62.3398 37.8005 62.6951 38.1505C63.0504 38.5015 63.6151 38.6205 64.0824 38.4433" stroke="#2B2D2F" stroke-width="1.25" stroke-linecap="round" stroke-linejoin="round"/>
<path fill-rule="evenodd" clip-rule="evenodd" d="M41.6915 30.7798C44.0718 29.6331 47.0679 29.7956 49.079 28.0816C50.6522 26.7403 51.2194 24.5521 51.3246 22.4881C51.4305 20.424 51.1621 18.3409 51.4505 16.2942C51.93 12.8915 54.2972 8.86511 57.2586 7.12336C60.22 5.38162 63.8946 4.44082 67.6022 6.31113L69.7445 3.84836C70.813 2.61915 72.1395 1.60278 73.6788 1.07113C75.6334 0.39702 77.6835 0.423081 80.049 0.843532C83.5968 1.47595 86.844 3.64248 88.7898 6.67511C89.927 8.44987 90.688 10.5565 92.3567 11.8439C95.6917 14.417 102.76 14.4656 105.485 17.6789C109.726 22.6809 106.323 27.7663 106.323 27.7663C106.323 27.7663 111.356 31.1455 112.816 34.6151C113.74 36.8094 113.39 38.9551 112.731 40.6456C112.088 42.297 110.963 43.7043 109.623 44.8658C108.257 46.0498 106.366 48.3536 108.945 50.5566C110.483 51.8692 113.772 51.7398 112.265 55.3657C110.758 58.9917 104.054 59.0403 104.054 59.0403C96.2641 59.5616 94.9941 58.5382 87.3886 57.4298L85.699 57.2387C85.461 53.8047 86.2663 49.7001 86.9708 45.2324C87.2583 45.3123 87.6015 45.3931 88.0949 45.5069C89.0817 45.7362 90.2267 45.7136 91.3716 45.4539C93.6997 44.9266 95.67 43.1961 96.1113 40.8506C96.1486 40.6517 96.1625 40.4432 96.1964 40.2304C96.325 39.426 96.245 38.6589 96.0539 37.9622C95.372 35.4821 93.0943 33.7594 90.5342 33.5179C90.4795 33.5127 90.4273 33.5084 90.377 33.5032C89.5673 33.4302 88.6726 33.7699 87.9932 33.9349C87.9932 33.9349 78.4697 32.5971 72.0083 22.0763C69.7097 18.3331 68.821 9.32465 68.821 9.32465C65.4557 9.96922 63.8477 10.7719 61.1791 13.51C58.7875 15.9641 57.6739 18.2627 56.2883 22.8408L54.1357 33.3442C52.6754 38.685 53.0394 44.2794 56.3517 48.4813C59.3175 52.2436 62.6307 54.4745 67.1288 54.9522L67.114 54.9592C67.114 54.9592 66.9759 55.7914 66.7813 57.0997C61.014 60.2122 53.9776 60.9619 47.7142 58.9986C46.6362 58.6607 45.4339 58.0848 45.2002 56.9798C44.891 55.5221 46.4668 54.3372 46.7204 52.8691C47.0879 50.7451 44.765 49.2848 42.9842 48.0695C40.0949 46.0958 37.8015 43.0528 37.3385 39.5849C36.8763 36.1162 38.539 32.2983 41.6915 30.7798Z" fill="white"/>
<path fill-rule="evenodd" clip-rule="evenodd" d="M41.6915 30.7798C44.0718 29.6331 47.0679 29.7956 49.079 28.0816C50.6522 26.7403 51.2194 24.5521 51.3246 22.4881C51.4305 20.424 51.1621 18.3409 51.4505 16.2942C51.93 12.8915 54.2972 8.86511 57.2586 7.12336C60.22 5.38162 63.8946 4.44082 67.6022 6.31113L69.7445 3.84836C70.813 2.61915 72.1395 1.60278 73.6788 1.07113C75.6334 0.39702 77.6835 0.423081 80.049 0.843532C83.5968 1.47595 86.844 3.64248 88.7898 6.67511C89.927 8.44987 90.688 10.5565 92.3567 11.8439C95.6917 14.417 102.76 14.4656 105.485 17.6789C109.726 22.6809 106.323 27.7663 106.323 27.7663C106.323 27.7663 111.356 31.1455 112.816 34.6151C113.74 36.8094 113.39 38.9551 112.731 40.6456C112.088 42.297 110.963 43.7043 109.623 44.8658C108.257 46.0498 106.366 48.3536 108.945 50.5566C110.483 51.8692 113.772 51.7398 112.265 55.3657C110.758 58.9917 104.054 59.0403 104.054 59.0403C96.2641 59.5616 94.9941 58.5382 87.3886 57.4298L85.699 57.2387C85.461 53.8047 86.2663 49.7001 86.9708 45.2324C87.2583 45.3123 87.6015 45.3931 88.0949 45.5069C89.0817 45.7362 90.2267 45.7136 91.3716 45.4539C93.6997 44.9266 95.67 43.1961 96.1113 40.8506C96.1486 40.6517 96.1625 40.4432 96.1964 40.2304C96.325 39.426 96.245 38.6589 96.0539 37.9622C95.372 35.4821 93.0943 33.7594 90.5342 33.5179C90.4795 33.5127 90.4273 33.5084 90.377 33.5032C89.5673 33.4302 88.6726 33.7699 87.9932 33.9349C87.9932 33.9349 78.4697 32.5971 72.0083 22.0763C69.7097 18.3331 68.821 9.32465 68.821 9.32465C65.4557 9.96922 63.8477 10.7719 61.1791 13.51C58.7875 15.9641 57.6739 18.2627 56.2883 22.8408L54.1357 33.3442C52.6754 38.685 53.0394 44.2794 56.3517 48.4813C59.3175 52.2436 62.6307 54.4745 67.1288 54.9522L67.114 54.9592C67.114 54.9592 66.9759 55.7914 66.7813 57.0997C61.014 60.2122 53.9776 60.9619 47.7142 58.9986C46.6362 58.6607 45.4339 58.0848 45.2002 56.9798C44.891 55.5221 46.4668 54.3372 46.7204 52.8691C47.0879 50.7451 44.765 49.2848 42.9842 48.0695C40.0949 46.0958 37.8015 43.0528 37.3385 39.5849C36.8763 36.1162 38.539 32.2983 41.6915 30.7798Z" fill="#FACBB3" stroke="#2B2D2F" stroke-width="1.25" stroke-linecap="round" stroke-linejoin="round"/>
<path d="M67.6023 6.31148C68.6517 4.81731 72.0153 4.95631 73.5164 5.99527C75.0184 7.03337 75.8072 8.8281 76.2745 10.5933C76.7428 12.3576 76.9686 14.2001 77.6966 15.8741C79.3297 19.6339 83.2667 21.9533 87.2653 22.8559C91.2631 23.7584 95.4163 23.4909 99.5149 23.5178C101.069 23.5274 102.66 23.5882 104.105 24.1615C105.55 24.7349 106.029 26.2403 106.324 27.7666" stroke="#2B2D2F" stroke-width="1.25" stroke-linecap="round" stroke-linejoin="round"/>
<path fill-rule="evenodd" clip-rule="evenodd" d="M32.0356 93.8759C32.0356 93.8759 43.1698 70.6547 50.0942 66.0558C52.6655 64.3479 59.1912 63.2195 66.0626 62.4785C65.61 66.3512 65.2669 70.6695 65.6726 72.6701C66.2016 75.2788 69.4427 79.5354 76.9005 79.5658C82.0832 79.5867 86.9931 75.9433 88.5533 72.168C89.7008 69.3595 89.964 65.3991 87.9252 63.1535C87.3718 62.5454 86.9505 61.8721 86.6169 61.1537C86.9531 61.1442 87.1529 61.1398 87.1529 61.1398C101.288 60.0835 109.075 64.9143 117.596 78.2932C117.596 78.2932 119.52 81.5247 122.144 83.7729C124.768 86.022 126.025 88.1972 124.534 90.865C124.534 90.865 120.99 88.1746 116.873 89.0338C114.225 89.5863 111.258 90.2517 108.925 92.9099C102.505 100.227 103.68 105.74 103.68 105.74L105.448 109.321L104.499 130.433C104.499 130.433 120.656 149.931 123.38 159.457H53.4248L54.2787 111.064C54.1267 110.907 53.9773 110.745 53.8278 110.583C50.9542 107.458 48.7433 103.465 48.5904 99.2445C48.5904 99.2393 48.5896 99.2332 48.5896 99.228C48.5574 99.2228 48.5192 99.2184 48.4871 99.2132C45.1921 98.685 40.0555 98.3567 36.8595 99.4564L36.0594 101.927C36.0594 101.927 35.9995 101.903 35.8944 101.854C34.8676 101.388 29.4877 98.6633 32.0356 93.8759Z" fill="#EE6F32"/>
<path d="M88.5533 72.168C86.9931 75.9433 82.0832 79.5867 76.9005 79.5658C69.4427 79.5354 66.2016 75.2788 65.6726 72.6701C65.2669 70.6695 65.61 66.3512 66.0626 62.4785C59.1912 63.2195 52.6655 64.3479 50.0942 66.0558C43.1698 70.6547 32.0356 93.8759 32.0356 93.8759C29.4877 98.6633 34.8676 101.388 35.8944 101.854C35.9995 101.903 36.0594 101.927 36.0594 101.927L36.8595 99.4564C40.0555 98.3567 45.1921 98.685 48.4871 99.2132C48.5192 99.2184 48.5574 99.2228 48.5896 99.228C48.5896 99.2332 48.5904 99.2393 48.5904 99.2445C48.7433 103.465 50.9542 107.458 53.8278 110.583C53.9773 110.745 54.1267 110.907 54.2787 111.064L53.4248 159.457H123.38C120.656 149.931 104.499 130.433 104.499 130.433L105.448 109.321L103.68 105.74C103.68 105.74 102.505 100.227 108.925 92.9099C111.258 90.2517 114.225 89.5863 116.873 89.0338C120.99 88.1746 124.534 90.865 124.534 90.865C126.025 88.1972 124.768 86.022 122.144 83.7729C119.52 81.5247 117.596 78.2932 117.596 78.2932C109.075 64.9143 101.288 60.0835 87.1529 61.1398C87.1529 61.1398 86.9531 61.1442 86.6169 61.1537C86.9505 61.8721 87.3718 62.5454 87.9252 63.1535C89.964 65.3991 89.7008 69.3595 88.5533 72.168ZM88.5533 72.168C88.5611 72.1489 88.5576 72.1593 88.5533 72.168Z" stroke="#2B2D2F" stroke-width="1.25"/>
<path d="M54.166 111.269C50.8398 108.147 48.7723 103.72 48.5134 99.1648C48.2554 94.6102 49.8095 89.9774 52.7613 86.4992" stroke="#2B2D2F" stroke-width="1.25" stroke-linecap="round" stroke-linejoin="round"/>
<path fill-rule="evenodd" clip-rule="evenodd" d="M147.039 132.673L142.805 124.902C142.409 125.375 136.177 110.883 123.868 90.5124C123.868 90.5124 121.804 89.0816 119.029 88.6455C118.025 88.4883 116.551 88.6073 114.869 89.0252C113.29 89.417 111.4 90.111 109.841 91.2377C106.929 93.3452 104.336 97.7791 103.618 100.03C103.377 100.783 103.223 101.508 103.125 102.169C102.858 103.984 103.287 105.831 104.253 107.39L109.076 115.182L95.864 109.675L94.4141 108.653C91.7446 105.845 91.504 105.75 88.725 102.649C86.1398 99.7632 83.1897 96.8904 79.3908 96.1285C75.2176 95.292 70.9245 96.9955 67.368 99.334C65.9816 100.245 64.5022 101.591 64.927 103.295C65.2267 104.498 66.3829 105.255 67.6165 105.367C69.5702 105.544 71.2242 104.453 72.8495 103.512C74.2386 102.706 76.5372 101.013 78.5725 103.016C77.4458 103.469 76.4173 103.912 75.3896 104.56C72.7939 106.195 71.2181 107.72 69.3226 110.682C68.8335 111.446 68.4009 112.269 68.248 113.165C68.096 114.059 68.2576 115.042 68.8457 115.733C69.4347 116.425 71.1877 116.624 72.2779 116.004C72.2779 116.004 72.0104 117.625 72.4421 118.294C72.9755 119.123 74.348 119.848 75.6389 118.682C75.228 119.497 75.0317 120.399 74.9674 121.356C74.977 122.283 75.3609 123.248 76.1376 123.754C76.9646 124.293 78.06 124.214 78.9912 123.886C80.3238 123.418 81.4844 122.475 82.2159 121.266C82.7701 120.35 83.0793 119.299 83.6709 118.407C84.2616 117.514 85.278 116.765 86.3309 116.957C87.3898 117.15 88.0752 118.214 88.3358 119.259C88.5956 120.303 88.5634 121.407 88.8614 122.441C89.2932 123.938 90.3851 125.119 91.7438 125.909C93.0642 126.677 94.6148 126.953 96.1402 126.899L98.4571 126.818C102.49 127.28 110.436 132.895 110.436 132.895L132.848 146.304C137.229 148.925 142.872 147.903 146.056 143.912C148.615 140.705 149.002 136.276 147.039 132.673Z" fill="white"/>
<path fill-rule="evenodd" clip-rule="evenodd" d="M147.039 132.673L142.805 124.902C142.409 125.375 136.177 110.883 123.868 90.5124C123.868 90.5124 121.804 89.0816 119.029 88.6455C118.025 88.4883 116.551 88.6073 114.869 89.0252C113.29 89.417 111.4 90.111 109.841 91.2377C106.929 93.3452 104.336 97.7791 103.618 100.03C103.377 100.783 103.223 101.508 103.125 102.169C102.858 103.984 103.287 105.831 104.253 107.39L109.076 115.182L95.864 109.675L94.4141 108.653C91.7446 105.845 91.504 105.75 88.725 102.649C86.1398 99.7632 83.1897 96.8904 79.3908 96.1285C75.2176 95.292 70.9245 96.9955 67.368 99.334C65.9816 100.245 64.5022 101.591 64.927 103.295C65.2267 104.498 66.3829 105.255 67.6165 105.367C69.5702 105.544 71.2242 104.453 72.8495 103.512C74.2386 102.706 76.5372 101.013 78.5725 103.016C77.4458 103.469 76.4173 103.912 75.3896 104.56C72.7939 106.195 71.2181 107.72 69.3226 110.682C68.8335 111.446 68.4009 112.269 68.248 113.165C68.096 114.059 68.2576 115.042 68.8457 115.733C69.4347 116.425 71.1877 116.624 72.2779 116.004C72.2779 116.004 72.0104 117.625 72.4421 118.294C72.9755 119.123 74.348 119.848 75.6389 118.682C75.228 119.497 75.0317 120.399 74.9674 121.356C74.977 122.283 75.3609 123.248 76.1376 123.754C76.9646 124.293 78.06 124.214 78.9912 123.886C80.3238 123.418 81.4844 122.475 82.2159 121.266C82.7701 120.35 83.0793 119.299 83.6709 118.407C84.2616 117.514 85.278 116.765 86.3309 116.957C87.3898 117.15 88.0752 118.214 88.3358 119.259C88.5956 120.303 88.5634 121.407 88.8614 122.441C89.2932 123.938 90.3851 125.119 91.7438 125.909C93.0642 126.677 94.6148 126.953 96.1402 126.899L98.4571 126.818C102.49 127.28 110.436 132.895 110.436 132.895L132.848 146.304C137.229 148.925 142.872 147.903 146.056 143.912C148.615 140.705 149.002 136.276 147.039 132.673Z" stroke="#2B2D2F" stroke-width="1.25" stroke-linecap="round" stroke-linejoin="round"/>
<path d="M74.9672 121.357C74.9577 120.431 75.2713 119.532 75.6387 118.682C76.8106 115.971 78.6688 113.439 81.3009 112.098C83.9322 110.759 86.9953 111.237 88.7856 113.368" stroke="#2B2D2F" stroke-width="1.25" stroke-linecap="round" stroke-linejoin="round"/>
<path d="M86.3164 108.212C85.499 106.422 82.8355 106.041 80.9174 106.503C78.9993 106.966 77.0569 108.423 75.7495 109.893C74.1468 111.693 72.8985 113.676 72.2522 115.994" stroke="#2B2D2F" stroke-width="1.25" stroke-linecap="round" stroke-linejoin="round"/>
<path d="M109.075 115.182L129.637 123.204" stroke="#2B2D2F" stroke-width="1.25" stroke-linecap="round" stroke-linejoin="round"/>
</g>
<defs>
<clipPath id="clip0_9874_289003">
<rect width="182.08" height="160" fill="white"/>
</clipPath>
</defs>
</svg>