<svg version="1.0" xmlns="http://www.w3.org/2000/svg"
 width="512.000000pt" height="512.000000pt" viewBox="0 0 512.000000 512.000000"
 preserveAspectRatio="xMidYMid meet">

<g transform="translate(0.000000,512.000000) scale(0.100000,-0.100000)"
fill="#000000" stroke="none">
<path d="M1441 4554 c-101 -36 -194 -125 -232 -222 -19 -48 -23 -82 -27 -219
l-4 -163 -302 0 c-230 0 -316 -4 -364 -15 -192 -46 -351 -205 -397 -397 -17
-74 -22 -666 -5 -697 5 -10 23 -24 40 -31 l30 -12 0 -672 c0 -369 4 -699 9
-733 19 -131 99 -241 216 -299 l60 -29 1128 -3 c797 -2 1133 1 1148 8 48 26
40 101 -13 119 -21 8 -373 11 -1128 11 l-1096 0 -51 25 c-28 15 -63 41 -78 60
-56 74 -55 60 -55 791 l0 674 27 -6 c16 -4 341 -112 723 -239 l695 -232 5
-149 c6 -168 17 -202 80 -235 30 -17 58 -19 220 -19 208 0 236 7 277 69 21 31
23 45 23 182 l0 147 183 61 c201 68 199 67 215 98 20 36 -13 93 -52 93 -12 0
-89 -22 -171 -50 -82 -27 -155 -50 -162 -50 -9 0 -13 15 -13 48 0 66 -27 112
-81 140 -42 22 -53 23 -231 20 -170 -3 -189 -5 -214 -24 -48 -35 -67 -70 -72
-129 -2 -30 -7 -55 -10 -55 -3 0 -346 113 -764 252 l-759 251 3 301 3 301 27
58 c34 72 121 160 191 192 29 14 84 29 122 35 87 12 2870 13 2966 1 101 -13
179 -53 248 -127 68 -72 99 -142 108 -243 7 -77 23 -101 68 -101 49 0 65 25
65 101 0 228 -186 450 -418 498 -32 7 -175 11 -357 11 l-303 0 -4 173 c-3 167
-4 174 -32 232 -38 76 -110 149 -184 183 l-57 27 -600 2 c-522 2 -606 0 -644
-13z m1211 -128 c64 -19 110 -57 144 -118 27 -51 29 -60 32 -205 l4 -153 -91
0 -91 0 0 133 c0 104 -3 137 -16 155 l-15 22 -542 0 c-298 0 -547 -4 -553 -8
-27 -17 -34 -56 -34 -176 l0 -126 -85 0 -85 0 0 148 c0 126 3 153 21 192 32
72 85 118 159 141 14 4 268 8 566 8 431 1 550 -2 586 -13z m-142 -386 l0 -90
-440 0 -440 0 0 90 0 90 440 0 440 0 0 -90z m-272 -1792 l2 -238 -165 0 -165
0 0 240 0 240 163 -2 162 -3 3 -237z"/>
<path d="M2045 2320 c-54 -21 -65 -89 -21 -127 35 -30 71 -29 101 2 31 30 32
66 3 99 -27 29 -55 38 -83 26z"/>
<path d="M3026 3225 c-75 -26 -126 -81 -146 -156 -7 -24 -9 -437 -8 -1201 l3
-1163 27 -46 c15 -25 46 -59 69 -75 l42 -29 933 0 932 0 43 30 c27 19 54 50
71 84 l28 53 0 921 0 922 -338 337 -337 338 -640 0 c-523 -1 -647 -3 -679 -15z
m1224 -342 c0 -129 5 -234 11 -258 15 -53 91 -129 144 -144 24 -6 129 -11 258
-11 l217 0 0 -867 c-1 -667 -3 -872 -13 -884 -30 -39 -30 -39 -926 -39 l-869
0 -31 26 -31 26 0 1159 0 1160 25 24 24 25 596 0 595 0 0 -217z m340 -78 l195
-195 -173 0 c-170 0 -173 0 -197 25 -25 24 -25 27 -25 195 0 93 1 170 3 170 1
0 90 -88 197 -195z"/>
<path d="M3280 2830 c-24 -24 -26 -57 -4 -88 l15 -22 343 0 c319 0 344 1 359
18 25 27 22 78 -5 96 -19 14 -70 16 -355 16 -320 0 -334 -1 -353 -20z"/>
<path d="M3303 2490 c-44 -18 -56 -77 -23 -110 19 -19 33 -20 353 -20 285 0
336 2 355 16 29 20 30 74 1 100 -20 18 -42 19 -343 21 -176 1 -331 -2 -343 -7z"/>
<path d="M3286 2119 c-35 -28 -35 -70 0 -98 26 -21 34 -21 659 -21 600 0 634
1 656 18 31 26 31 78 0 104 -22 17 -56 18 -656 18 -625 0 -633 0 -659 -21z"/>
<path d="M3280 1760 c-24 -24 -26 -57 -4 -88 l15 -22 648 0 c632 0 648 0 666
20 22 25 22 65 0 90 -18 20 -34 20 -662 20 -630 0 -643 0 -663 -20z"/>
<path d="M3285 1405 c-31 -30 -32 -65 -2 -93 l23 -22 633 0 c427 0 639 3 652
11 48 25 39 109 -13 123 -13 3 -303 6 -646 6 l-623 0 -24 -25z"/>
<path d="M3282 1047 c-29 -30 -28 -62 3 -92 l24 -25 623 0 c343 0 633 3 646 6
52 14 61 98 13 123 -13 8 -226 11 -654 11 l-634 0 -21 -23z"/>
</g>
</svg>
